<svg width="283" height="184" viewBox="0 0 283 184" fill="none" xmlns="http://www.w3.org/2000/svg">
<g filter="url(#filter0_d_9_2)">
<path d="M133.406 21.1875V58.4062H153.812V63H128.312V21.1875H133.406Z" fill="white"/>
</g>
<g filter="url(#filter1_d_9_2)">
<path d="M67.1875 32.25C67.1875 33.4792 67.4375 34.5 67.9375 35.3125C68.4375 36.1042 69.1042 36.7604 69.9375 37.2812C70.7917 37.8021 71.7708 38.2292 72.875 38.5625C74 38.8958 75.1667 39.2083 76.375 39.5C78 39.8958 79.5938 40.3333 81.1562 40.8125C82.7396 41.2917 84.1458 41.9583 85.375 42.8125C86.6042 43.6458 87.5938 44.7396 88.3438 46.0938C89.1146 47.4479 89.5 49.1875 89.5 51.3125C89.5 53.4792 89.0938 55.3542 88.2812 56.9375C87.4896 58.5 86.375 59.7917 84.9375 60.8125C83.5208 61.8125 81.8229 62.5521 79.8438 63.0312C77.8646 63.5312 75.6979 63.7812 73.3438 63.7812C72.2604 63.7812 71.1458 63.7083 70 63.5625C68.875 63.4375 67.7917 63.2604 66.75 63.0312C65.7292 62.8021 64.8021 62.5417 63.9688 62.25C63.1354 61.9583 62.4792 61.6667 62 61.375V56.7188C62.75 57.0938 63.5938 57.4375 64.5312 57.75C65.4688 58.0625 66.4375 58.3333 67.4375 58.5625C68.4375 58.7708 69.4479 58.9375 70.4688 59.0625C71.4896 59.1875 72.4479 59.25 73.3438 59.25C74.8021 59.25 76.1875 59.125 77.5 58.875C78.8333 58.625 80 58.2083 81 57.625C82 57.0417 82.7917 56.25 83.375 55.25C83.9583 54.2292 84.25 52.9583 84.25 51.4375C84.25 50.1875 83.9896 49.1562 83.4688 48.3438C82.9688 47.5312 82.2917 46.8646 81.4375 46.3438C80.5833 45.8021 79.5938 45.3646 78.4688 45.0312C77.3646 44.6979 76.1979 44.3854 74.9688 44.0938C73.3438 43.7188 71.75 43.3021 70.1875 42.8438C68.6458 42.3646 67.2604 41.7083 66.0312 40.875C64.8229 40.0417 63.8438 38.9688 63.0938 37.6562C62.3646 36.3438 62 34.6667 62 32.625C62 30.5 62.375 28.6771 63.125 27.1562C63.875 25.6146 64.8958 24.3438 66.1875 23.3438C67.4792 22.3438 68.9896 21.6042 70.7188 21.125C72.4479 20.6458 74.2917 20.4062 76.25 20.4062C78.4792 20.4062 80.5521 20.625 82.4688 21.0625C84.4062 21.4792 86.1771 22.0312 87.7812 22.7188V27.4375C86.0521 26.7083 84.2604 26.1146 82.4062 25.6562C80.5729 25.1979 78.6042 24.9583 76.5 24.9375C74.9167 24.9375 73.5417 25.1146 72.375 25.4688C71.2083 25.8021 70.2396 26.2917 69.4688 26.9375C68.6979 27.5625 68.125 28.3333 67.75 29.25C67.375 30.1458 67.1875 31.1458 67.1875 32.25Z" fill="white"/>
</g>
<g filter="url(#filter2_d_9_2)">
<path d="M208.469 63H206.125L195.594 38.0312C194.135 34.5938 192.677 30.8542 191.219 26.8125H190.969C191.26 32.625 191.406 37.9479 191.406 42.7812V63H186.312V21.1875H193.656L203.5 44.8438C204.625 47.5521 205.865 50.8125 207.219 54.625H207.375C208.875 50.3958 210.115 47.1354 211.094 44.8438L220.938 21.1875H228.281V63H223.188V42.7812C223.188 38.0521 223.333 32.7292 223.625 26.8125H223.375C221.833 31.0833 220.375 34.8229 219 38.0312L208.469 63Z" fill="white"/>
</g>
<path d="M18.1562 151.125C18.4062 150.906 18.8125 150.938 19.0625 151.156C19.2812 151.406 19.2812 151.781 19 152C16.25 154.344 15 155.906 14.7812 156.812C14.6875 157.312 15.0938 157.531 15.75 157.594C16.7812 157.688 18.2812 157.406 19.9062 156.938C23.5625 155.812 27.6875 153.594 27.6875 151.75C27.7188 150.125 22 149.656 16 149.188C10.4375 148.75 4.625 148.281 2.3125 146.562C0.96875 145.562 0.6875 144.25 2.03125 142.469C4.53125 139.094 10.875 134.281 17.7188 130.375C22 127.938 26.4688 125.844 30.2812 124.656C34.2812 123.438 37.625 123.188 39.5 124.594C39.875 124.875 40.2188 125.25 40.4688 125.688C42.5 129.25 26.9375 143.719 25.4375 145.156L25.3438 145.219C25.0938 145.469 24.6875 145.469 24.4375 145.219C24.1875 145 24.1875 144.625 24.4375 144.375L24.5312 144.312C25.9688 142.938 40.9375 129.031 39.3438 126.25C39.1562 125.938 38.9375 125.688 38.6875 125.5C37.2188 124.406 34.2812 124.688 30.6875 125.781C26.9375 126.938 22.5625 129 18.375 131.406C11.6875 135.219 5.5 139.906 3.0625 143.156C2.21875 144.281 2.34375 145.094 3.125 145.656C5.125 147.125 10.7188 147.594 16.125 148C22.7188 148.531 29 149.031 28.9688 151.75C28.9375 154.156 24.375 156.812 20.2812 158.062C18.5312 158.594 16.875 158.875 15.6562 158.781C14.0938 158.656 13.2188 158 13.5312 156.594C13.8125 155.438 15.1562 153.656 18.1562 151.125ZM39.9688 146.438C40.0312 146.5 40.0625 146.594 40.0625 146.688C40.625 146.094 40.9375 145.625 40.9375 145.625C41.125 145.344 41.5312 145.281 41.8125 145.469C42.0312 145.594 42.125 145.844 42.0938 146.094C41.75 148.719 41.625 149.719 41.7812 149.75C42.0312 149.781 42.7812 149.344 43.9375 148.656C44.9062 148.094 46.1875 147.375 47.75 146.594C48.0625 146.438 48.4688 146.594 48.625 146.906C48.7812 147.219 48.625 147.594 48.3125 147.75C46.7812 148.5 45.5625 149.219 44.5938 149.781C43.1875 150.594 42.2812 151.125 41.5938 151C40.6562 150.875 40.4375 150.031 40.5938 148.031C39.375 149.281 37.5 150.75 35.375 150.969C34.1875 151.094 33.625 150.594 33.5625 149.781C33.5 149.219 33.75 148.5 34.1875 147.844C34.5938 147.25 35.1562 146.625 35.8125 146.156C37.1875 145.188 38.8438 144.875 39.9688 146.438ZM39.375 147.438C39.1875 147.438 39.0312 147.344 38.9375 147.188C38.3438 146.375 37.375 146.625 36.5625 147.219C36.0625 147.562 35.5938 148.062 35.25 148.562C34.9688 149 34.8125 149.375 34.8438 149.656C34.8438 149.688 34.9688 149.719 35.25 149.688C36.875 149.531 38.3438 148.469 39.375 147.438ZM52.2188 140.594C52.5312 140.594 52.7812 140.781 52.8438 141.094C52.9375 141.438 52.7188 141.781 52.375 141.875C51.375 142.094 50.4688 143.969 50.4688 143.969C50.3438 144.312 49.9375 144.438 49.625 144.281C49.3125 144.125 49.1875 143.75 49.3438 143.438C49.3438 143.406 50.5 140.969 52.0938 140.625C52.125 140.594 52.1875 140.594 52.2188 140.594ZM49.0938 145.219C49.2188 145.219 49.375 145.281 49.5 145.375C49.75 145.594 49.7812 146 49.5625 146.281C48.8125 147.188 48.3125 147.969 48.0938 148.594C48 148.875 47.9688 149.094 48 149.281C48.0312 149.344 48.0625 149.406 48.1562 149.469C48.3125 149.531 48.5 149.562 48.75 149.562C49.5312 149.562 50.75 149.188 51.9688 148.719C53.8438 148 55.6875 147.062 56.25 146.656C56.5312 146.469 56.9375 146.531 57.1562 146.812C57.3438 147.094 57.2812 147.5 57 147.719C56.375 148.156 54.375 149.156 52.4375 149.906C51.0625 150.438 49.6875 150.844 48.75 150.844C48.3125 150.844 47.9375 150.75 47.625 150.625C47.1562 150.375 46.875 150.031 46.75 149.562C46.6562 149.156 46.7188 148.688 46.875 148.188C47.1562 147.406 47.7188 146.469 48.5938 145.469C48.7188 145.312 48.9062 145.219 49.0938 145.219ZM82.7812 131.562C82.625 131.875 82.25 132.031 81.9375 131.875C81.75 131.812 81.625 131.656 81.5938 131.469C80.0312 137.094 77.25 146.469 73.625 152.594C87.0312 155.156 103.656 158.125 104.406 157.062C104.531 156.906 104.188 157.219 104.031 157.125C103.719 156.906 103.656 156.531 103.875 156.25C104.062 155.938 104.469 155.875 104.75 156.094C105.625 156.688 105.812 157.25 105.469 157.781C104.281 159.469 86.7188 156.375 72.9062 153.781C71.6562 155.719 70.3125 157.219 68.875 158C64.9688 160.188 60.6875 158.688 57.9062 156.438C57.0312 155.719 56.2812 154.938 55.75 154.156C55.2188 153.344 54.875 152.5 54.8125 151.781C54.75 150.75 55.1875 149.938 56.2812 149.5C56.6562 149.344 60.6562 150.125 66.2812 151.188C68.1562 151.562 70.1875 151.969 72.3438 152.375C76.5625 145.438 79.7812 133.312 81.0625 128.531C81.2812 127.594 81.4688 126.938 81.5625 126.625C81.8438 125.719 82.375 125.031 82.8438 124.75C83.2188 124.5 83.5938 124.5 83.9375 124.719C84.2188 124.875 84.4062 125.219 84.4688 125.719C84.5625 126.625 84.1875 128.469 82.7812 131.562ZM81.8125 130.562C82.8125 128.312 83.1875 126.906 83.2188 126.125C83.0625 126.344 82.9062 126.625 82.7812 127C82.6875 127.344 82.5312 127.969 82.2812 128.844C82.1562 129.344 82 129.938 81.8125 130.562ZM68.25 156.906C69.4062 156.25 70.5312 155.062 71.5938 153.531C69.625 153.156 67.75 152.781 66.0312 152.469C60.625 151.406 56.7812 150.688 56.75 150.688C56.25 150.875 56.0625 151.25 56.0938 151.688C56.125 152.188 56.375 152.812 56.8125 153.438C57.2812 154.125 57.9375 154.812 58.7188 155.438C61.1562 157.438 64.9062 158.75 68.25 156.906ZM87.9062 145.406C88.0938 145.094 88.5 145 88.8125 145.188C89.0938 145.375 89.1875 145.75 89 146.062C89 146.062 86.4375 150.281 87.625 149.969C88.5312 149.719 89.1875 148.469 89.5312 147.125C89.6875 146.469 89.75 145.781 89.7188 145.188C89.6875 144.625 89.5938 144.125 89.4062 143.75C89.25 143.5 89.0312 143.312 88.75 143.312C88.1562 143.312 87.875 143.062 87.875 142.594C87.875 141.875 90.2812 140.562 93.4375 138.812C96.2812 137.25 99.7812 135.281 102.469 133.562C102.5 133.469 102.531 133.406 102.594 133.344C103.406 131.906 104.156 130.688 104.844 129.844C105.625 128.844 106.375 128.281 107 128.375C107.344 128.438 107.625 128.625 107.812 128.969C107.812 129 107.844 129.031 107.844 129.062C108.375 130.375 106.375 132.312 103.531 134.281C100.781 139.156 97.6875 146.375 96.8125 149.969C98.5625 148 101.469 144.938 102.344 145.469C102.875 145.594 102.969 146.781 103.406 149.562C103.719 150.062 106.719 147.812 107.906 146.875L108.219 146.656C108.5 146.438 108.906 146.5 109.125 146.781C109.344 147.062 109.281 147.469 109 147.688C108.812 147.812 108.75 147.844 108.688 147.906C107.375 148.906 104.406 151.188 103.281 151.062C102.25 150.969 102.094 149.562 101.938 148.219C101.844 147.406 101.656 147.281 101.562 147.219C101.312 147.062 96.9375 151.75 96.5312 152.281C96.4375 152.406 96.2812 152.5 96.125 152.531C95.7812 152.594 95.4375 152.375 95.375 152.031C94.9688 150.031 98.1562 141.875 101.281 135.75C98.9375 137.219 96.2812 138.688 94.0625 139.938C92.125 141 90.5 141.844 89.7188 142.281C90.0312 142.469 90.3125 142.781 90.5 143.125C90.8125 143.688 90.9688 144.375 91 145.125C91.0312 145.875 90.9688 146.656 90.7812 147.406C90.3438 149.188 89.375 150.812 87.9688 151.188C83.625 152.406 87.9062 145.406 87.9062 145.406ZM105.094 131.688C106.062 130.875 106.688 130.188 106.688 129.719C106.5 129.844 106.219 130.156 105.844 130.625C105.594 130.938 105.344 131.281 105.094 131.688ZM123.062 130.781H123.094C123.156 130.781 123.25 130.812 123.312 130.844C123.312 130.844 123.312 130.844 123.344 130.844C123.344 130.844 123.375 130.844 123.375 130.875H123.406C123.406 130.875 123.406 130.906 123.438 130.906C123.469 130.938 123.531 131 123.562 131.031C123.719 131.25 123.719 131.5 123.625 131.719C123.562 131.812 123.25 132.625 122.688 133.969C133.594 133.531 143.938 134.094 144 134.094C144.344 134.125 144.625 134.406 144.594 134.781C144.594 135.125 144.281 135.406 143.938 135.375C143.875 135.375 133.219 134.781 122.156 135.25C119.031 143.125 112.156 161.656 114.844 166.5C115 166.812 114.875 167.219 114.594 167.375C114.281 167.562 113.875 167.438 113.719 167.125C111.094 162.375 116.406 146.719 119.844 137.719C116.812 142.719 112.656 149.125 110.031 149.938C109.969 149.969 109.875 149.969 109.781 149.969C109.344 149.969 108.969 149.906 108.656 149.75C108.188 149.531 107.906 149.188 107.781 148.688C107.688 148.312 107.75 147.844 107.906 147.344C108.188 146.562 108.75 145.625 109.625 144.594C109.844 144.312 110.25 144.281 110.531 144.531C110.781 144.75 110.812 145.156 110.594 145.406C109.844 146.312 109.344 147.125 109.125 147.75C109.031 148.031 109 148.25 109.031 148.406C109.062 148.5 109.094 148.562 109.188 148.594C109.312 148.656 109.469 148.688 109.688 148.688C112.188 147.844 116.781 140.312 119.75 135.375C114.531 135.688 109.375 136.25 105.375 137.25C102.031 138.125 100.812 138.312 100.812 138.344C100.844 138.469 101.375 138.156 102.219 138.156C103.344 138.094 104.719 137.969 105.875 137.75C106.938 137.562 107.844 137.594 107.812 137.5C107.75 137.156 108 136.844 108.344 136.781C108.688 136.688 109 136.938 109.062 137.281C109.219 138.094 107.875 138.688 106.125 139C104.906 139.219 103.438 139.375 102.281 139.406C100.844 139.469 99.7188 139.25 99.5625 138.656C99.4062 138 100.781 137.125 105.062 136.031C109.344 134.938 114.938 134.344 120.562 134.062C121.594 132.344 122.344 131.156 122.688 130.906C122.75 130.844 122.812 130.812 122.875 130.812C122.906 130.812 122.906 130.781 122.938 130.781C122.969 130.781 122.969 130.781 122.969 130.781C123 130.781 123 130.781 123.031 130.781H123.062ZM114.312 138.062C114.625 138.031 114.875 138.25 114.969 138.562C115.031 138.906 114.812 139.25 114.469 139.312C113.469 139.531 112.594 141.438 112.594 141.438C112.438 141.75 112.031 141.875 111.719 141.719C111.406 141.562 111.281 141.188 111.438 140.875C111.438 140.875 112.594 138.438 114.188 138.062C114.219 138.062 114.281 138.062 114.312 138.062ZM138.031 146.531C138.375 146.438 138.719 146.656 138.812 147C138.906 147.344 138.688 147.688 138.344 147.781C138.312 147.781 130.562 149.656 128.406 150.969C127.438 151.562 126.938 151.594 126.625 151.094C126.406 150.75 126.531 150.375 126.719 149.844C127 149.125 127.438 147.844 126.938 146.656C126.25 145.031 120.094 154.531 120.094 154.562C119.906 154.844 119.5 154.938 119.188 154.75C118.969 154.594 118.844 154.281 118.938 154.031C124.406 136.688 128.281 127.969 130.594 124.594C132.094 122.375 133.219 122.125 133.875 123.188C134.312 123.906 134.312 125.562 133.906 127.719C132.781 133.125 128.938 142.25 122.406 147.5C122.094 148.469 121.75 149.438 121.438 150.438C123.781 147.375 127.094 143.688 128.094 146.156C128.656 147.5 128.406 148.75 128.125 149.656C130.875 148.25 138.031 146.531 138.031 146.531ZM131.656 125.312C129.844 127.938 127.062 133.969 123.219 145.062C128.531 139.938 131.656 132.219 132.625 127.469C133 125.625 133.062 124.312 132.812 123.875C132.75 123.781 132.406 124.219 131.656 125.312ZM135.812 153.438C136.125 153.156 136.562 153.219 136.812 153.5C137.062 153.812 137.031 154.25 136.75 154.5C136.719 154.5 129.344 160.812 135.844 158.469C140.156 156.938 152.781 148.938 164.938 141.25C178.375 132.719 191.25 124.562 192.656 125.781C193.219 126.281 192.969 127.188 191.781 128.562C183.062 138.656 178.719 144.844 177.375 147.938C177 148.875 176.875 149.375 176.969 149.469C177.094 149.594 177.531 149.438 178.312 149.062C180.875 147.875 185.406 144.219 190.75 138.906C193.219 136.438 194.438 135.812 195 136.406C195.562 136.969 195.156 138.25 194.594 139.969C193.812 142.375 192.688 145.844 193.438 148.031C194.188 150.156 196.969 151.062 204.375 148.469C204.75 148.344 205.156 148.531 205.281 148.906C205.406 149.281 205.219 149.688 204.844 149.812C196.406 152.75 193.094 151.344 192.094 148.5C191.188 145.875 192.406 142.125 193.25 139.531C193.656 138.281 194.062 137.469 194.031 137.406C193.938 137.312 193.469 138.156 191.75 139.906C186.312 145.344 181.594 149.062 178.906 150.344C177.562 150.969 176.562 151.062 176 150.5C175.438 149.969 175.438 148.938 176.094 147.406C177.469 144.188 181.906 137.875 190.719 127.656C191.281 127 191.875 126.969 191.75 126.844C191.125 126.312 178.656 134.219 165.688 142.438C153.469 150.156 140.812 158.188 136.344 159.781C122.531 164.75 135.781 153.469 135.812 153.438ZM222.969 132C222.969 132.094 222.938 132.156 222.906 132.25C222.906 132.25 222.562 133.094 221.969 134.5C232.781 134.094 243.031 134.656 243.094 134.656C243.438 134.656 243.688 134.969 243.688 135.312C243.656 135.656 243.375 135.938 243.031 135.906C242.969 135.906 232.406 135.312 221.469 135.812C218.344 143.594 211.531 161.938 214.188 166.75C214.375 167.062 214.25 167.469 213.938 167.625C213.625 167.781 213.25 167.688 213.094 167.375C210.469 162.594 215.906 146.688 219.312 137.844C213.938 145.75 211.562 145.75 208.906 145.375C210.094 147.594 210.031 149.312 209.406 150.5C208.719 151.812 207.375 152.469 206.188 152.5C204.875 152.531 203.75 151.844 203.719 150.438C203.719 149.344 204.5 147.812 206.719 145.875C207 145.656 207.406 145.688 207.625 145.938C207.844 146.219 207.812 146.625 207.562 146.844C205.656 148.5 204.969 149.656 205 150.438C205 150.969 205.531 151.25 206.156 151.219C206.938 151.219 207.812 150.781 208.281 149.938C208.812 148.906 208.719 147.25 207.156 144.906C206.969 144.625 207.031 144.25 207.312 144.031C207.469 143.969 207.594 143.938 207.75 143.938C208.125 143.969 208.438 144.031 208.75 144.062C211.281 144.438 213.344 144.719 219.062 135.906C213.875 136.219 208.781 136.781 204.844 137.781C201.5 138.625 200.281 138.812 200.312 138.875C200.344 138.969 200.875 138.688 201.719 138.656C202.812 138.625 204.188 138.469 205.312 138.25C206.375 138.062 207.25 138.125 207.25 138.031C207.188 137.688 207.406 137.344 207.75 137.281C208.094 137.219 208.438 137.469 208.5 137.781C208.625 138.594 207.312 139.188 205.562 139.5C204.344 139.719 202.906 139.875 201.75 139.906C200.312 139.969 199.219 139.75 199.062 139.188C198.906 138.531 200.281 137.625 204.531 136.562C208.781 135.469 214.344 134.906 219.906 134.594C220.562 133.562 221.281 132.375 222.031 131.094C222.219 130.781 222.594 130.688 222.906 130.875C223.188 131.031 223.312 131.438 223.125 131.719C223.062 131.812 223.031 131.906 222.969 132ZM222.125 144.688C222.312 144.406 222.719 144.312 223 144.5C223.312 144.719 223.375 145.094 223.188 145.406C223.156 145.406 220.719 148.75 220.438 149.812C220.438 149.812 222.812 148.656 225.594 145.938C225.844 145.719 226.25 145.75 226.5 146C226.688 146.219 226.688 146.562 226.531 146.781C223.906 151.156 225.438 150.938 228.125 146.812C228.344 146.531 228.75 146.469 229.031 146.688C229.312 146.875 229.375 147.281 229.156 147.562C228.281 148.719 227.438 149.719 226.75 150.375C225.938 151.125 225.188 151.469 224.656 151.219C223.812 150.781 223.844 149.781 224.156 148.75C221.906 150.5 218.812 152.594 218.906 150.812C218.969 149.375 222.094 144.688 222.125 144.688ZM229.562 142.844C229.688 142.5 230.062 142.344 230.375 142.469C230.719 142.562 230.875 142.938 230.75 143.281L228.25 150.188C229.531 148.812 230.812 147.719 232.031 146.906C233.781 145.75 235.094 145.188 236.062 145.125C236.875 145.062 237.469 145.312 237.875 145.812C239.031 147.156 238.688 149.031 237.844 151C237.938 150.969 238.062 150.906 238.156 150.844C239.969 149.781 242 149 245.125 146.75C245.406 146.562 245.781 146.562 246.031 146.812C246.25 147.062 246.25 147.5 245.969 147.719C242.75 150 240.688 150.875 238.812 151.938C238.281 152.219 237.844 152.438 237.531 152.5C236.812 152.688 236.375 152.469 236.281 151.844C236.25 151.594 236.312 151.312 236.469 150.938C237.281 149.188 237.844 147.688 236.906 146.625C236.75 146.469 236.531 146.375 236.156 146.406C235.406 146.469 234.281 146.938 232.719 147.969C230.906 149.188 228.938 151.125 227 153.625L216.656 182.125C216.531 182.438 216.156 182.625 215.812 182.5C215.562 182.406 215.375 182.125 215.406 181.844C215.844 174.375 217.906 167.469 220.625 161.719C222.188 158.406 224 155.469 225.844 153.031L229.562 142.844ZM217.281 176.625L224.062 158C223.25 159.344 222.5 160.75 221.781 162.25C219.781 166.5 218.156 171.375 217.281 176.625ZM250.125 146.438C250.188 146.5 250.219 146.594 250.219 146.688C250.781 146.094 251.094 145.625 251.094 145.625C251.281 145.344 251.688 145.281 251.969 145.469C252.188 145.594 252.281 145.844 252.25 146.094C251.906 148.719 251.781 149.719 251.938 149.75C252.188 149.781 252.938 149.344 254.094 148.656C255.062 148.094 256.344 147.375 257.906 146.594C258.219 146.438 258.625 146.594 258.781 146.906C258.938 147.219 258.781 147.594 258.469 147.75C256.938 148.5 255.719 149.219 254.75 149.781C253.344 150.594 252.438 151.125 251.75 151C250.812 150.875 250.594 150.031 250.75 148.031C249.531 149.281 247.656 150.75 245.531 150.969C244.344 151.094 243.781 150.594 243.719 149.781C243.656 149.219 243.906 148.5 244.344 147.844C244.75 147.25 245.312 146.625 245.969 146.156C247.344 145.188 249 144.875 250.125 146.438ZM249.531 147.438C249.344 147.438 249.188 147.344 249.094 147.188C248.5 146.375 247.531 146.625 246.719 147.219C246.219 147.562 245.75 148.062 245.406 148.562C245.125 149 244.969 149.375 245 149.656C245 149.688 245.125 149.719 245.406 149.688C247.031 149.531 248.5 148.469 249.531 147.438ZM258.938 147.469C258.875 147.531 258.812 147.594 258.719 147.625V147.656C258.219 149.906 258.125 151.594 258.688 152.125C258.844 152.281 259.188 152.281 259.688 152.094C260.031 151.969 260.375 151.781 260.75 151.562C262.812 150.312 265.344 147.906 267.812 145.031C268.719 142.781 269.812 140.469 270.969 138.281C273.938 132.531 277.281 127.531 278.625 126.75C279.188 126.406 279.656 126.469 279.969 127C280 127.031 280.031 127.094 280.031 127.156C280.594 128.562 277.75 133.938 273.844 139.438C272.312 141.562 270.625 143.75 268.906 145.719C267.531 149.156 266.594 152.375 266.562 154.719C266.562 156.594 267.188 157.812 268.844 157.844C269.219 157.844 269.5 158.125 269.5 158.469C269.5 158.844 269.188 159.125 268.844 159.125C266.281 159.094 265.25 157.375 265.281 154.688C265.312 152.938 265.812 150.688 266.625 148.219C264.781 150.156 263 151.719 261.406 152.656C260.969 152.906 260.562 153.125 260.156 153.281C259.125 153.688 258.344 153.594 257.812 153.062C256.875 152.188 256.906 150.062 257.469 147.406C257.969 144.906 259 141.906 260.156 139C262.5 133.156 265.625 127.844 267.031 128.219C267.219 128.281 267.406 128.375 267.594 128.531C267.938 128.875 268.25 129.469 268.344 130.344C268.406 131.125 268.344 132.125 267.969 133.406C267.156 136.5 264.688 141.156 258.938 147.469ZM259.375 145.031C263.969 139.688 266.031 135.75 266.75 133.062C267.062 131.969 267.125 131.125 267.062 130.469C267 129.938 266.875 129.625 266.719 129.469C266.688 129.469 266.688 129.469 266.688 129.438C265.969 129.25 263.469 134.156 261.344 139.469C260.594 141.344 259.906 143.25 259.375 145.031ZM270.906 141.25C271.562 140.406 272.188 139.531 272.781 138.688C276.031 134.156 278.531 129.875 278.844 128.188C277.469 129.5 274.688 133.844 272.094 138.875C271.688 139.656 271.281 140.438 270.906 141.25ZM276.938 140.594C277.25 140.594 277.5 140.781 277.562 141.094C277.656 141.438 277.438 141.781 277.094 141.875C276.094 142.094 275.188 143.969 275.188 143.969C275.062 144.312 274.656 144.438 274.344 144.281C274.031 144.125 273.906 143.75 274.062 143.438C274.062 143.406 275.219 140.969 276.812 140.625C276.844 140.594 276.906 140.594 276.938 140.594ZM273.812 145.219C273.938 145.219 274.094 145.281 274.219 145.375C274.469 145.594 274.5 146 274.281 146.281C273.531 147.188 273.031 147.969 272.812 148.594C272.719 148.875 272.688 149.094 272.719 149.281C272.75 149.344 272.781 149.406 272.875 149.469C273.031 149.531 273.219 149.562 273.469 149.562C274.25 149.562 275.469 149.188 276.688 148.719C278.562 148 280.406 147.062 280.969 146.656C281.25 146.469 281.656 146.531 281.875 146.812C282.062 147.094 282 147.5 281.719 147.719C281.094 148.156 279.094 149.156 277.156 149.906C275.781 150.438 274.406 150.844 273.469 150.844C273.031 150.844 272.656 150.75 272.344 150.625C271.875 150.375 271.594 150.031 271.469 149.562C271.375 149.156 271.438 148.688 271.594 148.188C271.875 147.406 272.438 146.469 273.312 145.469C273.438 145.312 273.625 145.219 273.812 145.219Z" fill="white"/><defs>
	<style>
		.signature1{
			stroke-dasharray: 800;
			stroke-dashoffset: 800;
			-webkit-animation: dash 1s linear forwards 0.5s;
			-o-animation: dash 1s linear forwards 0.5s;
			-moz-animation: dash 1s linear forwards 0.5s;
			animation: dash 1s linear forwards 0.5s;
		}
		.signature2{
			stroke-dasharray: 800;
			stroke-dashoffset: 800;
			-webkit-animation: dash 1s linear forwards 0.7s;
			-o-animation: dash 1s linear forwards 0.7s;
			-moz-animation: dash 1s linear forwards 0.7s;
			animation: dash 1s linear forwards 0.7s;
		}
		.signature3{
			stroke-dasharray: 800;
			stroke-dashoffset: 800;
			-webkit-animation: dash 1s linear forwards 0.9s;
			-o-animation: dash 1s linear forwards 0.9s;
			-moz-animation: dash 1s linear forwards 0.9s;
			animation: dash 1s linear forwards 0.9s;
		}
		.signature4{
			stroke-dasharray: 800;
			stroke-dashoffset: 800;
			-webkit-animation: dash 1s linear forwards 1.1s;
			-o-animation: dash 1s linear forwards 1.1s;
			-moz-animation: dash 1s linear forwards 1.1s;
			animation: dash 1s linear forwards 1.1s;
		}
		.signature5{
			stroke-dasharray: 800;
			stroke-dashoffset: 800;
			-webkit-animation: dash 1s linear forwards 1.3s;
			-o-animation: dash 1s linear forwards 1.3s;
			-moz-animation: dash 1s linear forwards 1.3s;
			animation: dash 1s linear forwards 1.3s;
		}
		.signature6{
			stroke-dasharray: 800;
			stroke-dashoffset: 800;
			-webkit-animation: dash 1s linear forwards 1.5s;
			-o-animation: dash 1s linear forwards 1.5s;
			-moz-animation: dash 1s linear forwards 1.5s;
			animation: dash 1s linear forwards 1.5s;
		}
		.signature7{
			stroke-dasharray: 800;
			stroke-dashoffset: 800;
			-webkit-animation: dash 1s linear forwards 1.7s;
			-o-animation: dash 1s linear forwards 1.7s;
			-moz-animation: dash 1s linear forwards 1.7s;
			animation: dash 1s linear forwards 1.7s;
		}
		.signature8{
			stroke-dasharray: 800;
			stroke-dashoffset: 800;
			-webkit-animation: dash 1s linear forwards 1.9s;
			-o-animation: dash 1s linear forwards 1.9s;
			-moz-animation: dash 1s linear forwards 1.9s;
			animation: dash 1s linear forwards 1.9s;
		}
		.signature9{
			stroke-dasharray: 800;
			stroke-dashoffset: 800;
			-webkit-animation: dash 1s linear forwards 2.1s;
			-o-animation: dash 1s linear forwards 2.1s;
			-moz-animation: dash 1s linear forwards 2.1s;
			animation: dash 1s linear forwards 2.1s;
		}
		.signature10{
			stroke-dasharray: 800;
			stroke-dashoffset: 800;
			-webkit-animation: dash 1s linear forwards 2.3s;
			-o-animation: dash 1s linear forwards 2.3s;
			-moz-animation: dash 1s linear forwards 2.3s;
			animation: dash 1s linear forwards 2.3s;
		}
		.signature11{
			stroke-dasharray: 800;
			stroke-dashoffset: 800;
			-webkit-animation: dash 1s linear forwards 2.5s;
			-o-animation: dash 1s linear forwards 2.5s;
			-moz-animation: dash 1s linear forwards 2.5s;
			animation: dash 1s linear forwards 2.5s;
		}
		.signature12{
			stroke-dasharray: 800;
			stroke-dashoffset: 800;
			-webkit-animation: dash 1s linear forwards 2.7s;
			-o-animation: dash 1s linear forwards 2.7s;
			-moz-animation: dash 1s linear forwards 2.7s;
			animation: dash 1s linear forwards 2.7s;
		}
		.signature13{
			stroke-dasharray: 800;
			stroke-dashoffset: 800;
			-webkit-animation: dash 1s linear forwards 2.9s;
			-o-animation: dash 1s linear forwards 2.9s;
			-moz-animation: dash 1s linear forwards 2.9s;
			animation: dash 1s linear forwards 2.9s;
		}
		.signature14{
			stroke-dasharray: 800;
			stroke-dashoffset: 800;
			-webkit-animation: dash 1s linear forwards 3.1s;
			-o-animation: dash 1s linear forwards 3.1s;
			-moz-animation: dash 1s linear forwards 3.1s;
			animation: dash 1s linear forwards 3.1s;
		}
		.signature15{
			stroke-dasharray: 800;
			stroke-dashoffset: 800;
			-webkit-animation: dash 1s linear forwards 3.3s;
			-o-animation: dash 1s linear forwards 3.3s;
			-moz-animation: dash 1s linear forwards 3.3s;
			animation: dash 1s linear forwards 3.3s;
		}

		.signature{
			stroke-dasharray: 800;
			stroke-dashoffset: 800;
			-webkit-animation: dash 6s linear forwards 0.5s;
			-o-animation: dash 6s linear forwards 0.5s;
			-moz-animation: dash 6s linear forwards 0.5s;
			animation: dash 6s linear forwards 0.5s;
		}

		.letter{
			opacity: 0;
			<!-- stroke-dasharray: 800;
			stroke-dashoffset: 800; -->
			<!-- -webkit-animation: dash 4s linear forwards 2s;
			-o-animation: dash 4s linear forwards 2s;
			-moz-animation: dash 4s linear forwards 2s;
			animation: dash 4s linear forwards 2s; -->
			-webkit-animation: fadein 2s linear forwards 2.5s;
			-o-animation: fadein 2s linear forwards 2.5s;
			-moz-animation: fadein 2s linear forwards 2.5s;
			animation: fadein 2s linear forwards 2.5s;
		}

		@-webkit-keyframes fadein{
			from{
				<!-- stroke-dashoffset: 800; -->
				opacity: 0;
			}
			to{
				<!-- stroke-dashoffset: 0; -->
				opacity: 1;
			}
		}
		.myHexagon{
			stroke-dasharray: 800;
			stroke-dashoffset: 800;
			-webkit-animation: dash 4s linear forwards 0.5s;
			-o-animation: dash 4s linear forwards 0.5s;
			-moz-animation: dash 4s linear forwards 0.5s;
			animation: dash 4s linear forwards 0.5s;
		}

		@-webkit-keyframes dash{
			from{
				stroke-dashoffset: 800;
			}
			to{
				stroke-dashoffset: 0;
			}
		}
	</style>
</defs>
</svg>
